<?xml version="1.0" encoding="UTF-8"?>
<svg id="Capa_1" xmlns="http://www.w3.org/2000/svg" version="1.1" viewBox="0 0 1306.67 1304">
  <!-- Generator: Adobe Illustrator 29.8.1, SVG Export Plug-In . SVG Version: 2.1.1 Build 2)  -->
  <defs>
    <style>
      .st0 {
        fill: #f8f8f9;
      }

      .st1 {
        fill: none;
        stroke: #f8f8f9;
        stroke-miterlimit: 10;
        stroke-width: 50px;
      }
    </style>
  </defs>
  <path class="st0" d="M991.27,657.35v-8.2c0-48.88-39.76-88.64-88.64-88.64-11.04,0-21.6,2.04-31.36,5.75-8.29-40.33-44.07-70.75-86.82-70.75-11.61,0-22.69,2.27-32.86,6.34-10.73-37.22-46.35-65.43-87.29-65.43-11.02,0-21.65,2.13-31.51,5.97v-106.43c0-48.88-39.76-88.64-88.64-88.64s-88.64,39.76-88.64,88.64v261.02c-15.51-19.81-34.17-37.08-55.82-45.98-24.16-9.93-49.58-8.74-73.54,3.44-44.05,22.4-62.21,76.38-40.48,120.34l110.1,222.82c3.11,6.11,77.73,149.73,212.82,149.73h157.57c124.25,0,225.33-101.61,225.33-226.54l-.12-163.45h-.11ZM766.18,988.24h-157.57c-97.31,0-157.93-113.21-160.12-117.38l-109.83-222.26c-7.58-15.34-1.3-33.56,14.3-41.49,8.6-4.37,16.08-4.82,24.26-1.47,32.62,13.37,64.64,77.83,77.16,115.29l9.49,28.6,50.75-17.96v-395.61c0-16.29,13.25-29.55,29.55-29.55s29.55,13.25,29.55,29.55v340.75h59.63v-149.7c0-16.49,14.76-31.51,30.98-31.51s31.51,13.81,31.51,29.55v161.51h59.09v-102.42c0-16.29,13.25-29.55,29.55-29.55s29.55,13.25,29.55,29.55v130h59.09v-65c0-16.29,13.25-29.55,29.55-29.55s29.55,13.25,29.55,29.55v42.26h.14l.1,129.42c0,92.32-74.58,167.42-166.24,167.42Z"/>
  <rect class="st1" x="44" y="37.33" width="1220" height="1220" rx="279.33" ry="279.33"/>
</svg>