<?xml version="1.0" encoding="UTF-8"?>
<svg xmlns="http://www.w3.org/2000/svg" viewBox="0 0 398.71 261.46">
  <defs>
    <style>
      .cls-1, .cls-2 {
        stroke-linecap: round;
      }

      .cls-1, .cls-2, .cls-3 {
        fill: none;
      }

      .cls-1, .cls-3 {
        stroke: #353132;
        stroke-miterlimit: 10;
        stroke-width: 10px;
      }

      .cls-2 {
        stroke: #971e1c;
        stroke-linejoin: round;
        stroke-width: 7px;
      }
    </style>
  </defs>
  <g id="A-DETL-THIN">
    <g>
      <g id="ARC">
        <path class="cls-2" d="M382.4,77.91c17.04-16.98,17.09-44.56.1-61.6-16.98-17.04-44.56-17.09-61.6-.1-.02.02-.03.03-.05.05-.29,7.94-4.43,15.16-11.15,19.39,3.77,7.11,3.71,15.54-.14,22.61,6.79,4.26,11.01,11.53,11.24,19.55,7.98.29,15.29,4.53,19.51,11.31,7.07-3.77,15.59-3.74,22.65.04,4.24-6.77,11.46-10.98,19.44-11.24Z"/>
      </g>
      <g id="LINE">
        <line class="cls-2" x1="351.51" y1="100.6" x2="362.96" y2="89.15"/>
      </g>
      <g id="LINE-2" data-name="LINE">
        <line class="cls-2" x1="321.13" y1="108.37" x2="340.35" y2="89.15"/>
      </g>
      <g id="LINE-3" data-name="LINE">
        <line class="cls-2" x1="301.61" y1="97.09" x2="320.8" y2="77.9"/>
      </g>
      <g id="LINE-4" data-name="LINE">
        <line class="cls-2" x1="290.34" y1="77.56" x2="309.47" y2="58.43"/>
      </g>
      <g id="ARC-2" data-name="ARC">
        <path class="cls-2" d="M381.7,78.61l-18.64,18.64c-7.96.26-15.28,4.46-19.52,11.2-7.06-3.74-15.51-3.72-22.55.05-4.21-6.8-11.54-11.06-19.53-11.35-.26-7.98-4.48-15.31-11.24-19.55,3.76-7.04,3.78-15.49.04-22.55,6.78-4.22,11.02-11.53,11.31-19.51l19.29-19.29"/>
      </g>
      <g id="LINE-5" data-name="LINE">
        <line class="cls-2" x1="297.9" y1="47.45" x2="309.7" y2="35.65"/>
      </g>
    </g>
  </g>
  <g id="Layer_2" data-name="Layer 2">
    <g>
      <g id="LINE-6" data-name="LINE">
        <line class="cls-1" x1="164.72" y1="215.38" x2="181.15" y2="256.46"/>
      </g>
      <g id="ARC-3" data-name="ARC">
        <path class="cls-1" d="M279.67,57.47c-15.52,13.08-20.22,35.7-10.1,54.19,11.55,21.1,38.02,28.85,59.12,17.3,4.71-2.58,8.89-6,12.34-10.07"/>
      </g>
      <g id="ARC-4" data-name="ARC">
        <path class="cls-1" d="M39.85,117.07v-57.5c0-6.74,5.46-12.2,12.2-12.2h22.65v74.92c0,6.74-5.46,12.2-12.2,12.2H5"/>
      </g>
      <path class="cls-1" d="M92.89,122.3c0,6.74,5.46,12.2,12.2,12.2h13.55"/>
      <path class="cls-3" d="M92.89,42.27v80.02"/>
      <g id="LINE-7" data-name="LINE">
        <line class="cls-1" x1="106.99" y1="47.38" x2="126.74" y2="47.38"/>
      </g>
      <g id="LINE-8" data-name="LINE">
        <line class="cls-1" x1="106.99" y1="90.94" x2="126.74" y2="90.94"/>
      </g>
      <g id="ARC-5" data-name="ARC">
        <path class="cls-1" d="M133.74,134.49c6.74,0,12.2-5.46,12.2-12.2v-62.73c0-6.74,5.46-12.2,12.2-12.2h22.65v87.11"/>
      </g>
      <g id="ARC-6" data-name="ARC">
        <path class="cls-1" d="M233.83,134.49V59.57c0-6.74-5.46-12.2-12.2-12.2h-10.45c-6.74,0-12.2,5.46-12.2,12.2v74.92"/>
      </g>
      <g id="LINE-9" data-name="LINE">
        <line class="cls-1" x1="252.02" y1="134.49" x2="252.02" y2="47.29"/>
      </g>
      <g id="LINE-10" data-name="LINE">
        <line class="cls-1" x1="252.02" y1="90.94" x2="264.22" y2="90.94"/>
      </g>
      <g id="LINE-11" data-name="LINE">
        <line class="cls-1" x1="213.08" y1="90.94" x2="219.73" y2="90.94"/>
      </g>
      <g id="ARC-7" data-name="ARC">
        <path class="cls-1" d="M74.69,256.4v-87.06h-40.07c-6.74,0-12.2,5.46-12.2,12.2v74.86"/>
      </g>
      <g id="LINE-12" data-name="LINE">
        <line class="cls-1" x1="48.56" y1="256.4" x2="48.56" y2="184.44"/>
      </g>
      <g id="ARC-8" data-name="ARC">
        <path class="cls-1" d="M92.89,256.4v-74.86c0-6.74,5.46-12.2,12.2-12.2h10.45c6.74,0,12.2,5.46,12.2,12.2v74.86"/>
      </g>
      <g id="LINE-13" data-name="LINE">
        <line class="cls-1" x1="106.99" y1="212.9" x2="113.64" y2="212.9"/>
      </g>
      <g id="LINE-14" data-name="LINE">
        <line class="cls-1" x1="145.93" y1="256.4" x2="145.93" y2="169.33"/>
      </g>
      <g id="ARC-9" data-name="ARC">
        <path class="cls-1" d="M159.93,212.9h8.65c6.74,0,12.2-5.46,12.2-12.2v-31.38"/>
      </g>
      <path class="cls-1" d="M198.98,244.26c0,6.74,5.46,12.2,12.2,12.2h22.65"/>
      <path class="cls-3" d="M198.98,164.34v79.92"/>
      <g id="LINE-15" data-name="LINE">
        <line class="cls-1" x1="213.08" y1="169.34" x2="233.83" y2="169.34"/>
      </g>
      <g id="LINE-16" data-name="LINE">
        <line class="cls-1" x1="213.08" y1="212.9" x2="233.83" y2="212.9"/>
      </g>
      <g id="LINE-17" data-name="LINE">
        <line class="cls-1" x1="248.02" y1="169.34" x2="286.87" y2="169.34"/>
      </g>
      <g id="LINE-18" data-name="LINE">
        <line class="cls-1" x1="267.45" y1="256.4" x2="267.45" y2="183.44"/>
      </g>
    </g>
  </g>
</svg>