<?xml version="1.0" encoding="UTF-8"?>
<svg id="Layer_2" xmlns="http://www.w3.org/2000/svg" viewBox="0 0 390.21 260.96">
  <defs>
    <style>
      .cls-1 {
        fill: #b95527;
      }

      .cls-2 {
        fill: none;
        stroke: #b95527;
        stroke-miterlimit: 10;
        stroke-width: 8px;
      }
    </style>
  </defs>
  <g id="ARC">
    <path class="cls-2" d="M34.85,117.57v-57.5c0-6.74,5.46-12.2,12.2-12.2h22.65v74.92c0,6.74-5.46,12.2-12.2,12.2H0"/>
  </g>
  <g id="ARC-2" data-name="ARC">
    <path class="cls-2" d="M86.89,43.88v78.92c0,6.74,5.46,12.2,12.2,12.2h22.55"/>
  </g>
  <g id="LINE">
    <line class="cls-2" x1="95.99" y1="47.88" x2="121.74" y2="47.88"/>
  </g>
  <g id="LINE-2" data-name="LINE">
    <line class="cls-2" x1="95.99" y1="91.44" x2="121.74" y2="91.44"/>
  </g>
  <g id="ARC-3" data-name="ARC">
    <path class="cls-2" d="M126.74,134.99c6.74,0,12.2-5.46,12.2-12.2v-62.73c0-6.74,5.46-12.2,12.2-12.2h22.65v91.11"/>
  </g>
  <g id="ARC-4" data-name="ARC">
    <path class="cls-2" d="M225.83,138.99V60.07c0-6.74-5.46-12.2-12.2-12.2h-10.45c-6.74,0-12.2,5.46-12.2,12.2v78.92"/>
  </g>
  <g id="LINE-3" data-name="LINE">
    <line class="cls-2" x1="243.02" y1="138.99" x2="243.02" y2="43.88"/>
  </g>
  <g id="LINE-4" data-name="LINE">
    <line class="cls-2" x1="243.02" y1="91.44" x2="255.22" y2="91.44"/>
  </g>
  <g id="LINE-5" data-name="LINE">
    <line class="cls-2" x1="200.08" y1="91.44" x2="216.73" y2="91.44"/>
  </g>
  <g id="ARC-5" data-name="ARC">
    <path class="cls-2" d="M69.69,260.94v-91.1H29.62c-6.74,0-12.2,5.46-12.2,12.2v78.9"/>
  </g>
  <g id="LINE-6" data-name="LINE">
    <line class="cls-2" x1="43.56" y1="260.94" x2="43.56" y2="178.94"/>
  </g>
  <g id="ARC-6" data-name="ARC">
    <path class="cls-2" d="M86.89,260.94v-78.9c0-6.74,5.46-12.2,12.2-12.2h10.45c6.74,0,12.2,5.46,12.2,12.2v78.9"/>
  </g>
  <g id="LINE-7" data-name="LINE">
    <line class="cls-2" x1="95.99" y1="213.4" x2="112.64" y2="213.4"/>
  </g>
  <g id="LINE-8" data-name="LINE">
    <line class="cls-2" x1="138.93" y1="260.94" x2="138.93" y2="165.81"/>
  </g>
  <g id="ARC-7" data-name="ARC">
    <path class="cls-2" d="M147.93,213.4h13.65c6.74,0,12.2-5.46,12.2-12.2v-35.39"/>
  </g>
  <g id="LINE-9" data-name="LINE">
    <polygon class="cls-1" points="171.06 260.94 152.64 214.89 160.07 211.92 179.68 260.94 171.06 260.94"/>
  </g>
  <g id="ARC-8" data-name="ARC">
    <path class="cls-2" d="M190.98,165.81v78.95c0,6.74,5.46,12.2,12.2,12.2h22.65"/>
  </g>
  <g id="LINE-10" data-name="LINE">
    <line class="cls-2" x1="200.08" y1="169.84" x2="225.83" y2="169.84"/>
  </g>
  <g id="LINE-11" data-name="LINE">
    <line class="cls-2" x1="200.08" y1="213.4" x2="225.83" y2="213.4"/>
  </g>
  <g id="LINE-12" data-name="LINE">
    <line class="cls-2" x1="236.02" y1="169.84" x2="273.87" y2="169.84"/>
  </g>
  <g id="LINE-13" data-name="LINE">
    <line class="cls-2" x1="255.45" y1="260.94" x2="255.45" y2="178.94"/>
  </g>
  <g id="ARC-9" data-name="ARC">
    <path class="cls-2" d="M271.36,57.58c-16.07,12.99-21.06,36-10.79,54.76,11.55,21.1,38.02,28.85,59.12,17.3,4.87-2.67,9.17-6.23,12.68-10.48"/>
  </g>
  <g id="ARC-10" data-name="ARC">
    <path class="cls-2" d="M373.4,78.41c17.04-16.98,17.09-44.56.1-61.6-16.98-17.04-44.56-17.09-61.6-.1-.02.02-.03.03-.05.05-.29,7.94-4.43,15.16-11.15,19.39,3.77,7.11,3.71,15.54-.14,22.61,6.79,4.26,11.01,11.53,11.24,19.55,7.98.29,15.29,4.53,19.51,11.31,7.07-3.77,15.59-3.74,22.65.04,4.24-6.77,11.46-10.98,19.44-11.24Z"/>
  </g>
  <g id="LINE-14" data-name="LINE">
    <line class="cls-2" x1="342.51" y1="101.1" x2="353.96" y2="89.65"/>
  </g>
  <g id="LINE-15" data-name="LINE">
    <line class="cls-2" x1="312.13" y1="108.87" x2="331.35" y2="89.65"/>
  </g>
  <g id="LINE-16" data-name="LINE">
    <line class="cls-2" x1="292.61" y1="97.59" x2="311.8" y2="78.4"/>
  </g>
  <g id="LINE-17" data-name="LINE">
    <line class="cls-2" x1="281.34" y1="78.06" x2="300.47" y2="58.93"/>
  </g>
  <g id="ARC-11" data-name="ARC">
    <path class="cls-2" d="M372.7,79.11l-18.64,18.64c-7.96.26-15.28,4.46-19.52,11.2-7.06-3.74-15.51-3.72-22.55.05-4.21-6.8-11.54-11.06-19.53-11.35-.26-7.98-4.48-15.31-11.24-19.55,3.76-7.04,3.78-15.49.04-22.55,6.78-4.22,11.02-11.53,11.31-19.51l19.29-19.29"/>
  </g>
  <g id="LINE-18" data-name="LINE">
    <line class="cls-2" x1="288.9" y1="47.95" x2="300.7" y2="36.15"/>
  </g>
</svg>