<?xml version="1.0" encoding="UTF-8"?>
<svg id="A-DETL-THIN" xmlns="http://www.w3.org/2000/svg" version="1.1" viewBox="0 0 100.67 128.33">
  <!-- Generator: Adobe Illustrator 29.8.1, SVG Export Plug-In . SVG Version: 2.1.1 Build 2)  -->
  <defs>
    <style>
      .st0 {
        fill: none;
        stroke: #babcbe;
        stroke-linecap: round;
        stroke-linejoin: round;
        stroke-width: 10px;
      }
    </style>
  </defs>
  <g id="LINE">
    <line class="st0" x1="87.96" y1="89.16" x2="87.96" y2="72.97"/>
  </g>
  <g id="LINE1" data-name="LINE">
    <line class="st0" x1="71.97" y1="116.13" x2="71.97" y2="88.95"/>
  </g>
  <g id="LINE2" data-name="LINE">
    <line class="st0" x1="50.19" y1="121.96" x2="50.19" y2="94.82"/>
  </g>
  <g id="LINE3" data-name="LINE">
    <line class="st0" x1="28.41" y1="116.12" x2="28.41" y2="89.06"/>
  </g>
  <g id="ARC">
    <path class="st0" d="M93.76,52.27v26.36c-5.44,5.81-7.65,13.95-5.88,21.72-7.63,2.35-13.59,8.34-15.91,15.98-7.79-1.83-15.98.34-21.84,5.79-5.83-5.46-13.99-7.66-21.77-5.87-2.32-7.64-8.28-13.63-15.92-15.97,1.81-7.78-.36-15.94-5.8-21.79v-27.28"/>
  </g>
  <g id="LINE4" data-name="LINE">
    <line class="st0" x1="12.47" y1="89.49" x2="12.47" y2="72.8"/>
    <path class="st0" d="M12.47,89.49"/>
    <path class="st0" d="M12.47,88.82"/>
  </g>
  <g id="ARC1" data-name="ARC">
    <path class="st0" d="M6.64,51.13s0,.05,0,.07c5.41,5.82,7.59,13.86,5.83,21.6,7.7,2.36,13.61,8.37,15.89,16.09,7.81-1.79,15.94.37,21.77,5.87,5.85-5.44,14.01-7.61,21.79-5.8,2.33-7.66,8.38-13.66,16.04-15.99-1.79-7.78.34-15.87,5.8-21.7v-.21s0-.05,0-.07c-5.41-5.82-7.59-13.86-5.83-21.6-7.7-2.36-13.61-8.37-15.89-16.09-7.81,1.79-15.94-.37-21.77-5.87-5.85,5.44-14.01,7.61-21.79,5.8-2.33,7.66-8.38,13.66-16.04,15.99,1.79,7.78-.34,15.87-5.8,21.7v.21Z"/>
  </g>
</svg>