<?xml version="1.0" encoding="UTF-8"?>
<svg id="Layer_1" xmlns="http://www.w3.org/2000/svg" version="1.1" viewBox="0 0 595 304">
  <!-- Generator: Adobe Illustrator 29.8.1, SVG Export Plug-In . SVG Version: 2.1.1 Build 2)  -->
  <defs>
    <style>
      .st0, .st1, .st2 {
        stroke-linecap: round;
      }

      .st0, .st1, .st2, .st3 {
        fill: none;
      }

      .st0, .st1, .st3 {
        stroke: #353132;
        stroke-width: 10px;
      }

      .st0, .st3 {
        stroke-miterlimit: 10;
      }

      .st1, .st2 {
        stroke-linejoin: round;
      }

      .st2 {
        stroke: #971e1c;
        stroke-width: 7px;
      }
    </style>
  </defs>
  <g id="A-DETL-THIN">
    <g>
      <g id="ARC">
        <path class="st2" d="M404.4,96.58c17.04-16.98,17.09-44.56.1-61.6-16.98-17.04-44.56-17.09-61.6-.1-.02.02-.03.03-.05.05-.29,7.94-4.43,15.16-11.15,19.39,3.77,7.11,3.71,15.54-.14,22.61,6.79,4.26,11.01,11.53,11.24,19.55,7.98.29,15.29,4.53,19.51,11.31,7.07-3.77,15.59-3.74,22.65.04,4.24-6.77,11.46-10.98,19.44-11.24h0Z"/>
      </g>
      <g id="LINE">
        <line class="st2" x1="373.51" y1="119.27" x2="384.96" y2="107.82"/>
      </g>
      <g id="LINE-2">
        <line class="st2" x1="343.13" y1="127.04" x2="362.35" y2="107.82"/>
      </g>
      <g id="LINE-3">
        <line class="st2" x1="323.61" y1="115.76" x2="342.8" y2="96.57"/>
      </g>
      <g id="LINE-4">
        <line class="st2" x1="312.34" y1="96.23" x2="331.47" y2="77.1"/>
      </g>
      <g id="ARC-2">
        <path class="st2" d="M403.7,97.28l-18.64,18.64c-7.96.26-15.28,4.46-19.52,11.2-7.06-3.74-15.51-3.72-22.55.05-4.21-6.8-11.54-11.06-19.53-11.35-.26-7.98-4.48-15.31-11.24-19.55,3.76-7.04,3.78-15.49.04-22.55,6.78-4.22,11.02-11.53,11.31-19.51l19.29-19.29"/>
      </g>
      <g id="LINE-5">
        <line class="st2" x1="319.9" y1="66.12" x2="331.7" y2="54.32"/>
      </g>
    </g>
  </g>
  <g id="LINE-6">
    <line class="st0" x1="186.72" y1="234.05" x2="203.15" y2="275.13"/>
  </g>
  <g id="ARC-3">
    <path class="st0" d="M301.67,76.14c-15.52,13.08-20.22,35.7-10.1,54.19,11.55,21.1,38.02,28.85,59.12,17.3,4.71-2.58,8.89-6,12.34-10.07"/>
  </g>
  <g id="ARC-4">
    <path class="st0" d="M61.85,135.74v-57.5c0-6.74,5.46-12.2,12.2-12.2h22.65v74.92c0,6.74-5.46,12.2-12.2,12.2H27"/>
  </g>
  <path class="st0" d="M114.89,140.97c0,6.74,5.46,12.2,12.2,12.2h13.55"/>
  <path class="st3" d="M114.89,60.94v80.02"/>
  <g id="LINE-7">
    <line class="st0" x1="128.99" y1="66.05" x2="148.74" y2="66.05"/>
  </g>
  <g id="LINE-8">
    <line class="st0" x1="128.99" y1="109.61" x2="148.74" y2="109.61"/>
  </g>
  <g id="ARC-5">
    <path class="st0" d="M155.74,153.16c6.74,0,12.2-5.46,12.2-12.2v-62.73c0-6.74,5.46-12.2,12.2-12.2h22.65v87.11"/>
  </g>
  <g id="ARC-6">
    <path class="st0" d="M255.83,153.16v-74.92c0-6.74-5.46-12.2-12.2-12.2h-10.45c-6.74,0-12.2,5.46-12.2,12.2v74.92"/>
  </g>
  <g id="LINE-9">
    <line class="st0" x1="274.02" y1="153.16" x2="274.02" y2="65.96"/>
  </g>
  <g id="LINE-10">
    <line class="st0" x1="274.02" y1="109.61" x2="286.22" y2="109.61"/>
  </g>
  <g id="LINE-11">
    <line class="st0" x1="235.08" y1="109.61" x2="241.73" y2="109.61"/>
  </g>
  <g id="ARC-8">
    <path class="st0" d="M114.89,275.07v-74.86c0-6.74,5.46-12.2,12.2-12.2h10.45c6.74,0,12.2,5.46,12.2,12.2v74.86"/>
  </g>
  <g id="LINE-13">
    <line class="st0" x1="128.99" y1="231.57" x2="135.64" y2="231.57"/>
  </g>
  <g id="LINE-14">
    <line class="st0" x1="167.93" y1="275.07" x2="167.93" y2="188"/>
  </g>
  <g id="ARC-9">
    <path class="st0" d="M181.93,231.57h8.65c6.74,0,12.2-5.46,12.2-12.2v-31.38"/>
  </g>
  <path class="st0" d="M220.98,262.93c0,6.74,5.46,12.2,12.2,12.2h22.65"/>
  <path class="st3" d="M220.98,183.01v79.92"/>
  <g id="LINE-15">
    <line class="st0" x1="235.08" y1="188.01" x2="255.83" y2="188.01"/>
  </g>
  <g id="LINE-16">
    <line class="st0" x1="235.08" y1="231.57" x2="255.83" y2="231.57"/>
  </g>
  <g id="LINE-17">
    <line class="st0" x1="270.02" y1="188.01" x2="308.87" y2="188.01"/>
  </g>
  <g id="LINE-18">
    <line class="st0" x1="289.45" y1="275.07" x2="289.45" y2="202.11"/>
  </g>
  <g id="LINE1">
    <line class="st1" x1="70.56" y1="275.06" x2="70.56" y2="215.56"/>
  </g>
  <g id="ARC1">
    <path class="st1" d="M96.69,275.06v-87.06l-20.1,11.61c-3.76,2.15-8.43,2.13-12.17-.06l-20-11.55v87.06"/>
  </g>
</svg>