<?xml version="1.0" encoding="UTF-8"?>
<svg id="Layer_1" xmlns="http://www.w3.org/2000/svg" version="1.1" viewBox="0 0 511.44 264.22">
  <!-- Generator: Adobe Illustrator 29.8.1, SVG Export Plug-In . SVG Version: 2.1.1 Build 2)  -->
  <defs>
    <style>
      .st0, .st1, .st2 {
        stroke-linecap: round;
      }

      .st0, .st1, .st2, .st3 {
        fill: none;
      }

      .st0, .st1, .st3 {
        stroke: #353132;
        stroke-width: 10px;
      }

      .st0, .st3 {
        stroke-miterlimit: 10;
      }

      .st1, .st2 {
        stroke-linejoin: round;
      }

      .st2 {
        stroke: #971e1c;
        stroke-width: 7px;
      }
    </style>
  </defs>
  <g id="A-DETL-THIN">
    <g>
      <g id="ARC">
        <path class="st2" d="M384.73,79.25c17.04-16.98,17.09-44.56.1-61.6-16.98-17.04-44.56-17.09-61.6-.1-.02.02-.03.03-.05.05-.29,7.94-4.43,15.16-11.15,19.39,3.77,7.11,3.71,15.54-.14,22.61,6.79,4.26,11.01,11.53,11.24,19.55,7.98.29,15.29,4.53,19.51,11.31,7.07-3.77,15.59-3.74,22.65.04,4.24-6.77,11.46-10.98,19.44-11.24h0Z"/>
      </g>
      <g id="LINE">
        <line class="st2" x1="353.84" y1="101.94" x2="365.29" y2="90.49"/>
      </g>
      <g id="LINE-2">
        <line class="st2" x1="323.46" y1="109.71" x2="342.68" y2="90.49"/>
      </g>
      <g id="LINE-3">
        <line class="st2" x1="303.94" y1="98.43" x2="323.13" y2="79.24"/>
      </g>
      <g id="LINE-4">
        <line class="st2" x1="292.67" y1="78.9" x2="311.8" y2="59.77"/>
      </g>
      <g id="ARC-2">
        <path class="st2" d="M384.03,79.95l-18.64,18.64c-7.96.26-15.28,4.46-19.52,11.2-7.06-3.74-15.51-3.72-22.55.05-4.21-6.8-11.54-11.06-19.53-11.35-.26-7.98-4.48-15.31-11.24-19.55,3.76-7.04,3.78-15.49.04-22.55,6.78-4.22,11.02-11.53,11.31-19.51l19.29-19.29"/>
      </g>
      <g id="LINE-5">
        <line class="st2" x1="300.23" y1="48.79" x2="312.03" y2="36.99"/>
      </g>
    </g>
  </g>
  <g id="LINE-6">
    <line class="st0" x1="167.05" y1="216.72" x2="183.48" y2="257.8"/>
  </g>
  <g id="ARC-3">
    <path class="st0" d="M282,58.81c-15.52,13.08-20.22,35.7-10.1,54.19,11.55,21.1,38.02,28.85,59.12,17.3,4.71-2.58,8.89-6,12.34-10.07"/>
  </g>
  <g id="ARC-4">
    <path class="st0" d="M42.18,118.41v-57.5c0-6.74,5.46-12.2,12.2-12.2h22.65v74.92c0,6.74-5.46,12.2-12.2,12.2H7.33"/>
  </g>
  <path class="st0" d="M95.22,123.64c0,6.74,5.46,12.2,12.2,12.2h13.55"/>
  <path class="st3" d="M95.22,43.61v80.02"/>
  <g id="LINE-7">
    <line class="st0" x1="109.32" y1="48.72" x2="129.07" y2="48.72"/>
  </g>
  <g id="LINE-8">
    <line class="st0" x1="109.32" y1="92.28" x2="129.07" y2="92.28"/>
  </g>
  <g id="ARC-5">
    <path class="st0" d="M136.07,135.83c6.74,0,12.2-5.46,12.2-12.2v-62.73c0-6.74,5.46-12.2,12.2-12.2h22.65v87.11"/>
  </g>
  <g id="ARC-6">
    <path class="st0" d="M236.16,135.83V60.91c0-6.74-5.46-12.2-12.2-12.2h-10.45c-6.74,0-12.2,5.46-12.2,12.2v74.92"/>
  </g>
  <g id="LINE-9">
    <line class="st0" x1="254.35" y1="135.83" x2="254.35" y2="48.63"/>
  </g>
  <g id="LINE-10">
    <line class="st0" x1="254.35" y1="92.28" x2="266.55" y2="92.28"/>
  </g>
  <g id="LINE-11">
    <line class="st0" x1="215.41" y1="92.28" x2="222.06" y2="92.28"/>
  </g>
  <g id="ARC-8">
    <path class="st0" d="M95.22,257.74v-74.86c0-6.74,5.46-12.2,12.2-12.2h10.45c6.74,0,12.2,5.46,12.2,12.2v74.86"/>
  </g>
  <g id="LINE-13">
    <line class="st0" x1="109.32" y1="214.24" x2="115.97" y2="214.24"/>
  </g>
  <g id="LINE-14">
    <line class="st0" x1="148.26" y1="257.74" x2="148.26" y2="170.67"/>
  </g>
  <g id="ARC-9">
    <path class="st0" d="M162.26,214.24h8.65c6.74,0,12.2-5.46,12.2-12.2v-31.38"/>
  </g>
  <path class="st0" d="M201.31,245.6c0,6.74,5.46,12.2,12.2,12.2h22.65"/>
  <path class="st3" d="M201.31,165.68v79.92"/>
  <g id="LINE-15">
    <line class="st0" x1="215.41" y1="170.68" x2="236.16" y2="170.68"/>
  </g>
  <g id="LINE-16">
    <line class="st0" x1="215.41" y1="214.24" x2="236.16" y2="214.24"/>
  </g>
  <g id="LINE-17">
    <line class="st0" x1="250.35" y1="170.68" x2="289.2" y2="170.68"/>
  </g>
  <g id="LINE-18">
    <line class="st0" x1="269.78" y1="257.74" x2="269.78" y2="184.78"/>
  </g>
  <g id="LINE1">
    <line class="st1" x1="50.89" y1="257.73" x2="50.89" y2="198.23"/>
  </g>
  <g id="ARC1">
    <path class="st1" d="M77.02,257.73v-87.06l-20.1,11.61c-3.76,2.15-8.43,2.13-12.17-.06l-20-11.55v87.06"/>
  </g>
</svg>