<?xml version="1.0" encoding="UTF-8"?>
<svg id="Layer_2" xmlns="http://www.w3.org/2000/svg" viewBox="0 0 395.21 262.96">
  <defs>
    <style>
      .cls-1 {
        fill: none;
        stroke: #b95527;
        stroke-miterlimit: 10;
        stroke-width: 10px;
      }

      .cls-2 {
        fill: #b95527;
      }
    </style>
  </defs>
  <g id="ARC">
    <path class="cls-1" d="M34.85,118.57v-57.5c0-6.74,5.46-12.2,12.2-12.2h22.65v74.92c0,6.74-5.46,12.2-12.2,12.2H0"/>
  </g>
  <g id="ARC-2" data-name="ARC">
    <path class="cls-1" d="M87.89,43.79v80c0,6.74,5.46,12.2,12.2,12.2h21.55"/>
  </g>
  <g id="LINE">
    <line class="cls-1" x1="98.99" y1="48.88" x2="121.74" y2="48.88"/>
  </g>
  <g id="LINE-2" data-name="LINE">
    <line class="cls-1" x1="98.99" y1="92.44" x2="121.74" y2="92.44"/>
  </g>
  <g id="ARC-3" data-name="ARC">
    <path class="cls-1" d="M128.74,135.99c6.74,0,12.2-5.46,12.2-12.2v-62.73c0-6.74,5.46-12.2,12.2-12.2h22.65v92.11"/>
  </g>
  <g id="ARC-4" data-name="ARC">
    <path class="cls-1" d="M228.83,140.99V61.07c0-6.74-5.46-12.2-12.2-12.2h-10.45c-6.74,0-12.2,5.46-12.2,12.2v79.92"/>
  </g>
  <g id="LINE-3" data-name="LINE">
    <line class="cls-1" x1="247.02" y1="140.99" x2="247.02" y2="43.79"/>
  </g>
  <g id="LINE-4" data-name="LINE">
    <line class="cls-1" x1="247.02" y1="92.44" x2="259.22" y2="92.44"/>
  </g>
  <g id="LINE-5" data-name="LINE">
    <line class="cls-1" x1="205.08" y1="92.44" x2="217.73" y2="92.44"/>
  </g>
  <g id="ARC-5" data-name="ARC">
    <path class="cls-1" d="M69.69,262.9v-92.06H29.62c-6.74,0-12.2,5.46-12.2,12.2v79.86"/>
  </g>
  <g id="LINE-6" data-name="LINE">
    <line class="cls-1" x1="43.56" y1="262.9" x2="43.56" y2="181.94"/>
  </g>
  <g id="ARC-6" data-name="ARC">
    <path class="cls-1" d="M87.89,262.9v-79.86c0-6.74,5.46-12.2,12.2-12.2h10.45c6.74,0,12.2,5.46,12.2,12.2v79.86"/>
  </g>
  <g id="LINE-7" data-name="LINE">
    <line class="cls-1" x1="98.99" y1="214.4" x2="111.64" y2="214.4"/>
  </g>
  <g id="LINE-8" data-name="LINE">
    <line class="cls-1" x1="140.93" y1="262.9" x2="140.93" y2="165.83"/>
  </g>
  <g id="ARC-7" data-name="ARC">
    <path class="cls-1" d="M151.93,214.4h11.65c6.74,0,12.2-5.46,12.2-12.2v-36.38"/>
  </g>
  <g id="LINE-9" data-name="LINE">
    <polygon class="cls-2" points="172.33 262.81 153.72 216.26 163 212.54 183.14 262.9 172.33 262.81"/>
  </g>
  <g id="ARC-8" data-name="ARC">
    <path class="cls-1" d="M193.98,165.83v79.94c0,6.74,5.46,12.2,12.2,12.2h23.65"/>
  </g>
  <g id="LINE-10" data-name="LINE">
    <line class="cls-1" x1="205.08" y1="170.84" x2="227.83" y2="170.84"/>
  </g>
  <g id="LINE-11" data-name="LINE">
    <line class="cls-1" x1="205.08" y1="214.4" x2="227.83" y2="214.4"/>
  </g>
  <g id="LINE-12" data-name="LINE">
    <line class="cls-1" x1="240.02" y1="170.84" x2="284.87" y2="170.84"/>
  </g>
  <g id="LINE-13" data-name="LINE">
    <line class="cls-1" x1="262.45" y1="262.9" x2="262.45" y2="181.94"/>
  </g>
  <g id="ARC-9" data-name="ARC">
    <path class="cls-1" d="M273.77,59.92c-14.81,13.19-19.13,35.28-9.21,53.42,11.55,21.1,38.02,28.85,59.12,17.3,4.14-2.26,7.87-5.18,11.05-8.61"/>
  </g>
  <g id="ARC-10" data-name="ARC">
    <path class="cls-1" d="M377.4,79.41c17.04-16.98,17.09-44.56.1-61.6-16.98-17.04-44.56-17.09-61.6-.1-.02.02-.03.03-.05.05-.29,7.94-4.43,15.16-11.15,19.39,3.77,7.11,3.71,15.54-.14,22.61,6.79,4.26,11.01,11.53,11.24,19.55,7.98.29,15.29,4.53,19.51,11.31,7.07-3.77,15.59-3.74,22.65.04,4.24-6.77,11.46-10.98,19.44-11.24Z"/>
  </g>
  <g id="LINE-14" data-name="LINE">
    <line class="cls-1" x1="346.51" y1="102.1" x2="357.96" y2="90.65"/>
  </g>
  <g id="LINE-15" data-name="LINE">
    <line class="cls-1" x1="316.13" y1="109.87" x2="335.35" y2="90.65"/>
  </g>
  <g id="LINE-16" data-name="LINE">
    <line class="cls-1" x1="296.61" y1="98.59" x2="315.8" y2="79.4"/>
  </g>
  <g id="LINE-17" data-name="LINE">
    <line class="cls-1" x1="285.34" y1="79.06" x2="304.47" y2="59.93"/>
  </g>
  <g id="ARC-11" data-name="ARC">
    <path class="cls-1" d="M376.7,80.11l-18.64,18.64c-7.96.26-15.28,4.46-19.52,11.2-7.06-3.74-15.51-3.72-22.55.05-4.21-6.8-11.54-11.06-19.53-11.35-.26-7.98-4.48-15.31-11.24-19.55,3.76-7.04,3.78-15.49.04-22.55,6.78-4.22,11.02-11.53,11.31-19.51l19.29-19.29"/>
  </g>
  <g id="LINE-18" data-name="LINE">
    <line class="cls-1" x1="292.9" y1="48.95" x2="304.7" y2="37.15"/>
  </g>
</svg>